<?xml version="1.0" encoding="utf-8"?>
<!-- Generator: Adobe Illustrator 21.1.0, SVG Export Plug-In . SVG Version: 6.00 Build 0)  -->
<svg version="1.1" id="Layer_1" xmlns="http://www.w3.org/2000/svg" xmlns:xlink="http://www.w3.org/1999/xlink" x="0px" y="0px"
	 viewBox="0 0 750 750" style="enable-background:new 0 0 750 750;" xml:space="preserve">
<style type="text/css">
	.st0{fill:none;}
	.st1{opacity:0.2;enable-background:new    ;}
</style>
<path class="st0" d="M21,21h708v708H21V21z"/>
<path class="st1" d="M375,153.8c-147.5,0-273.5,91.7-324.5,221.2c51,129.5,177,221.2,324.5,221.2S648.5,504.5,699.5,375
	C648.5,245.5,522.5,153.8,375,153.8z M375,522.5c-81.4,0-147.5-66.1-147.5-147.5S293.6,227.5,375,227.5S522.5,293.6,522.5,375
	S456.4,522.5,375,522.5z M375,286.5c-49,0-88.5,39.5-88.5,88.5s39.5,88.5,88.5,88.5s88.5-39.5,88.5-88.5S424,286.5,375,286.5z"/>
</svg>
