<?xml version="1.0" encoding="utf-8"?>
<!-- Generator: Adobe Illustrator 21.1.0, SVG Export Plug-In . SVG Version: 6.00 Build 0)  -->
<svg version="1.1" xmlns="http://www.w3.org/2000/svg" xmlns:xlink="http://www.w3.org/1999/xlink" x="0px" y="0px"
	 viewBox="0 0 854 1055" style="enable-background:new 0 0 854 1055;" xml:space="preserve">
<style type="text/css">
	.st0{display:none;}
	.st1{display:inline;}
	.st2{fill:none;}
	.st3{fill:#FFFFFF;}
	.st4{font-family:'NexaLight';}
	.st5{font-size:170px;}
</style>
<g id="Layer_2" class="st0">
	<rect x="1" y="-17" class="st1" width="853" height="1072"/>
</g>
<g id="Layer_1">
	<path class="st2" d="M73,21h708v708H73V21z"/>
	<path class="st3" d="M427,153.8c-147.5,0-273.5,91.7-324.5,221.2c51,129.5,177,221.2,324.5,221.2S700.5,504.5,751.5,375
		C700.5,245.5,574.5,153.8,427,153.8z M427,522.5c-81.4,0-147.5-66.1-147.5-147.5S345.6,227.5,427,227.5S574.5,293.6,574.5,375
		S508.4,522.5,427,522.5z M427,286.5c-49,0-88.5,39.5-88.5,88.5s39.5,88.5,88.5,88.5s88.5-39.5,88.5-88.5S476,286.5,427,286.5z"/>
	<text transform="matrix(1 0 0 1 15.2485 954)" class="st3 st4 st5">Expressief</text>
</g>
</svg>
