<?xml version="1.0" encoding="utf-8"?>
<!-- Generator: Adobe Illustrator 21.1.0, SVG Export Plug-In . SVG Version: 6.00 Build 0)  -->
<svg version="1.1" id="Layer_1" xmlns="http://www.w3.org/2000/svg" xmlns:xlink="http://www.w3.org/1999/xlink" x="0px" y="0px"
	 viewBox="0 0 786 750" style="enable-background:new 0 0 786 750;" xml:space="preserve">
<style type="text/css">
	.st0{opacity:0.39;}
</style>
<path class="st0" d="M659.3,279.6C626.2,212.7,539.8,165,438.4,165c-75.5,0-142.6,26.4-185.7,67.5c31.7-10.4,65.9-15.8,101.2-15.8
	c67.2,0,130.5,19.5,178.2,55c48.3,36,74.9,84,74.9,135.2c0,23-5.4,45.3-15.6,66.1c37.8-24.1,65.2-56.9,76.6-94.3
	c19.7-17.1,56.5-37.3,106.7-13.2C753.1,308.2,691.1,286.9,659.3,279.6z"/>
<path class="st0" d="M350.3,235c-101.4,0-187.8,47.7-220.9,114.6c-31.7,7.3-93.8,28.6-115.3,86c50.2-24.1,87.1-4,106.7,13.2
	c23.7,78,117.5,136.3,229.5,136.3c130,0,235.3-78.4,235.3-175.1S480.3,235,350.3,235z M366.4,481H357h-71.9h-20.2h-51.6l35.9-62.2
	l35.9-62.2l25.8,44.7l4.7-8.2l50.8-88l50.8,88l50.8,88H366.4z"/>
</svg>
