<?xml version="1.0" encoding="utf-8"?>
<!-- Generator: Adobe Illustrator 21.1.0, SVG Export Plug-In . SVG Version: 6.00 Build 0)  -->
<svg version="1.1" id="Layer_1" xmlns="http://www.w3.org/2000/svg" xmlns:xlink="http://www.w3.org/1999/xlink" x="0px" y="0px"
	 viewBox="0 0 61.7 18" style="enable-background:new 0 0 61.7 18;" xml:space="preserve">
<path d="M6,12.1l3.7,2.7l-1.4-4.4L12,7.8H7.4L6,3.2L4.6,7.8H0l3.7,2.6l-1.4,4.4L6,12.1z"/>
<path d="M39.1,12.1l3.7,2.7l-1.4-4.4l3.7-2.6h-4.6l-1.4-4.5l-1.5,4.5h-4.5l3.7,2.6l-1.4,4.4L39.1,12.1z"/>
<path d="M22.6,12.1l3.7,2.7l-1.4-4.4l3.7-2.6H24l-1.4-4.5l-1.5,4.5h-4.5l3.7,2.6l-1.4,4.4L22.6,12.1z"/>
<path d="M55.7,12.1l3.7,2.7L58,10.4l3.7-2.6h-4.6l-1.4-4.5l-1.5,4.5h-4.5l3.7,2.6L52,14.8L55.7,12.1z"/>
</svg>
