<?xml version="1.0" encoding="utf-8"?>
<!-- Generator: Adobe Illustrator 21.1.0, SVG Export Plug-In . SVG Version: 6.00 Build 0)  -->
<svg version="1.1" xmlns="http://www.w3.org/2000/svg" xmlns:xlink="http://www.w3.org/1999/xlink" x="0px" y="0px"
	 viewBox="0 0 786 1351" style="enable-background:new 0 0 786 1351;" xml:space="preserve">
<style type="text/css">
	.st0{display:none;}
	.st1{display:inline;}
	.st2{opacity:0.39;}
	.st3{stroke:#FFFFFF;stroke-miterlimit:10;}
	.st4{stroke:#FFFFFF;stroke-width:10;stroke-miterlimit:10;}
	.st5{fill:#FFFFFF;}
	.st6{font-family:'NexaLight';}
	.st7{font-size:170px;}
</style>
<g id="Layer_4" class="st0">
	<rect x="-113" y="-65" class="st1" width="1050" height="1660"/>
</g>
<g id="Layer_1" class="st0">
	<g class="st1">
		
			<ellipse transform="matrix(0.9313 -0.3643 0.3643 0.9313 -102.8315 65.2433)" class="st2" cx="121.5" cy="305.2" rx="61.3" ry="61.3"/>
		<path class="st2" d="M301.4,241.2l-4.7,0.4c-3,0.3-5.7-2-6-5l-6.6-74.3c-0.3-3,2-5.7,5-6l4.7-0.4c3-0.3,5.7,2,6,5l6.6,74.3
			C306.6,238.2,304.4,240.9,301.4,241.2z"/>
		<path class="st2" d="M563.8,564.2H377.6c-1-0.8-2.1-1.6-3.2-2.3L49.5,348.5c-22.1-14.5-52.1-8.3-66.6,13.8h0
			c-14.5,22.1-8.3,52.1,13.8,66.6l324.9,213.4c9.3,6.1,20.1,8.6,30.5,7.7v158.1c0,17.3,14.1,31.4,31.4,31.4h146.9
			c17.3,0,31.4-14.1,31.4-31.4V642.7h2.1c21.6,0,39.2-17.6,39.2-39.2l0,0C603,581.9,585.4,564.2,563.8,564.2z M533.1,808.1
			c0,1.5-1.3,2.9-2.9,2.9H383.4c-1.5,0-2.9-1.3-2.9-2.9V642.7h152.6V808.1z"/>
		<path class="st2" d="M729.8,612.7l-15.3-13.4L585.7,496.2c-1.6-0.3-3.2-0.4-4.8-0.4H568l24.9-13.6l1.5,2.7l121,96.8
			c0.3-5.7-1-11.6-4-16.9l-79.1-137.1c-3.7-6.4-9.5-11-16-13.4c-8.6-4.2-19-4.3-28,0.6l-139,75.7c-1,0.6-2,1.2-2.9,1.8
			c-3-4-6.7-7.4-11.2-10.2L257.7,374.5l93.1-32.9c8.1-2.8,13.3-9.4,14.4-16.7c0.8-2.2,1.2-4.6,1.1-7.1l-6.7-141
			c-0.5-11.4-11.3-20.3-23.9-19.8h0c-12.6,0.5-22.4,10.2-21.9,21.5l6.2,129.6l-131.5,46.4c-11.3,4-21.3,26.2-18,37.3
			c-0.5,14.2,6.4,28.4,19.4,36.3l203.1,123.5c8.3,5,17.6,6.7,26.6,5.5h154.1l115.7,101.7c12.7,11.1,32.1,9.9,43.3-2.8
			C743.7,643.3,742.4,623.8,729.8,612.7z"/>
	</g>
</g>
<g id="Layer_2" class="st0">
	<g class="st1">
		
			<ellipse transform="matrix(0.9572 -0.2894 0.2894 0.9572 -35.8856 122.7905)" class="st2" cx="397.2" cy="182.7" rx="60.9" ry="60.9"/>
		<path class="st2" d="M538.7,258.5l-3.7-2.8c-2.4-1.8-2.9-5.3-1.1-7.7l44.7-59c1.8-2.4,5.3-2.9,7.7-1.1l3.7,2.8
			c2.4,1.8,2.9,5.3,1.1,7.7l-44.7,59C544.6,259.9,541.1,260.4,538.7,258.5z"/>
		<path class="st3" d="M609.8,733.1"/>
		<path class="st4" d="M370.4,847.6"/>
		<path class="st4" d="M549.2,682.3"/>
		<rect x="235.6" y="41" class="st2" width="55.3" height="870.2"/>
		<g>
			<path class="st2" d="M450,783.7L399.4,831l16.6,63.3c4.2,16.2,21,26,37.2,21.8h0c16.2-4.2,26-21,21.8-37.2L450,783.7z"/>
			<path class="st2" d="M413.8,341.2l89.9,38.4c7.2,3.1,15.1,1.2,20.7-4c2-1.3,3.9-3,5.5-5.1l89.8-120.8c7.2-9.7,6-24.3-2.6-32.4
				c-8.7-8.1-21.7-6.8-28.9,3l-82.5,110.9l-115.7-49.5c-8.5-5.7-18.8-9.1-29.8-9.1h0c-29.5,0-53.6,24.1-53.6,53.6v175.6
				c0,15.3,6.5,29.1,16.9,38.9L373.5,732l50.7-47l-22.7-86.5l54.7,61.3l7.5,7.5l-0.4,0.4l0,0l-35.1,32.9l0-0.1L377.7,748l0.1,0.3
				l-52.4,49.2c-12.2,11.5-12.8,30.8-1.4,43.1c11,11.7,29.2,12.7,41.5,2.7l-0.2-0.2l80.8-74.8l-0.1-0.4l79.1-74.3
				c5.4-5.1,8.5-11.7,9.4-18.5c2.1-9.3-0.2-19.4-6.9-27L411.2,518c1.6-5.1,2.5-10.5,2.5-16.1V341.2z"/>
		</g>
	</g>
</g>
<g id="Layer_3">
	<g>
		
			<ellipse transform="matrix(0.4698 -0.8827 0.8827 0.4698 -52.5467 399.2801)" class="st5" cx="306.1" cy="243.4" rx="61.9" ry="61.9"/>
		<path class="st5" d="M461,335.2l-3.5-3.4c-2.2-2.1-2.2-5.6-0.1-7.8l52.7-54c2.1-2.2,5.6-2.2,7.8-0.1l3.5,3.4
			c2.2,2.1,2.2,5.6,0.1,7.8l-52.7,54C466.7,337.2,463.2,337.3,461,335.2z"/>
		<path class="st5" d="M473.4,625H282.3l-51-396.9c-3.4-26.5-27.9-45.4-54.4-42c-26.5,3.4-45.4,27.9-42,54.4l54.2,421.7
			c3.4,26.5,27.9,45.4,54.4,42c0.1,0,0.2,0,0.3,0c0.2,0,0.4,0,0.6,0h15.1v167.1c0,17.5,14.2,31.7,31.7,31.7h148.4
			c17.5,0,31.7-14.2,31.7-31.7V704.2h2.2c21.8,0,39.6-17.8,39.6-39.6S495.2,625,473.4,625z M442.4,871.3c0,1.6-1.3,2.9-2.9,2.9
			H291.2c-1.6,0-2.9-1.3-2.9-2.9V704.2h154.1V871.3z"/>
		<path class="st5" d="M641,674l-8.1-7.1l-0.4,0.5L495,556.2c-1.4-0.2-2.8-0.3-4.3-0.3h-13l25-13.6l0.1-0.2l123.8,100.1
			c0.2-5.6-1.1-11.4-4.1-16.6l-79.9-138.5c-3.8-6.5-9.6-11.1-16.2-13.5c-8.7-4.2-19.2-4.3-28.3,0.6l-140.4,76.5
			c-1.3,0.7-2.4,1.5-3.5,2.3l-24-146.4l82.5,51.3c7,4.3,15.1,3.5,21.3-1.2c2.2-1.1,4.3-2.6,6.1-4.6l104.2-113.8
			c8.4-9.2,8.8-24.7,1-34.5c-7.8-9.8-21.1-10.3-29.5-1.2L420,407.2l-111.6-69.4c-7-4.9-15.8-7.1-24.8-5.7
			c-18.4,3-30.9,20.5-27.9,38.9l35.5,216.9c0,0,0,0,0,0c0.6,16.5,14.3,29.9,30.9,29.9h161.1l116.9,102.7c12.8,11.2,32.5,10,43.7-2.8
			C655.1,704.9,653.8,685.2,641,674z"/>
	</g>
	<text transform="matrix(1 0 0 1 87.2485 1256)" class="st5 st6 st7">Zittend</text>
</g>
</svg>
