<?xml version="1.0" encoding="utf-8"?>
<!-- Generator: Adobe Illustrator 21.1.0, SVG Export Plug-In . SVG Version: 6.00 Build 0)  -->
<svg version="1.1" id="Layer_1" xmlns="http://www.w3.org/2000/svg" xmlns:xlink="http://www.w3.org/1999/xlink" x="0px" y="0px"
	 viewBox="0 0 750 750" style="enable-background:new 0 0 750 750;" xml:space="preserve">
<style type="text/css">
	.st0{opacity:0.39;}
</style>
<path class="st0" d="M416,241h-76c-6.6,0-12-5.4-12-12l-20-81c0-6.6,5.4-12,12-12h116c6.6,0,12,5.4,12,12l-20,81
	C428,235.6,422.6,241,416,241z"/>
<path class="st0" d="M470,220.5c-0.7,10.3,11.5,16.1,18.9,9c26.8-25.6,66-68.2,81.1-110c14.4-39.5,8.7-64.4,1.8-77.9
	c-3.6-7.1-13.4-8.3-18.5-2.1c-14.8,17.4-46.9,51.5-87.2,71.4c-4.6,2.3-7.1,7.4-6,12.4C464.1,141.6,472.5,185.6,470,220.5z"/>
<path class="st0" d="M279.8,220.5c0.7,10.3-11.5,16.1-18.9,9c-26.8-25.6-66-68.2-81.1-110c-14.4-39.5-8.7-64.4-1.8-77.9
	c3.6-7.1,13.4-8.3,18.5-2.1c14.8,17.4,46.9,51.5,87.2,71.4c4.6,2.3,7.1,7.4,6,12.4C285.7,141.6,277.3,185.6,279.8,220.5z"/>
<path class="st0" d="M423.6,649.4l-36.7,60.8c-4,6.6-13.7,6.5-17.5-0.3l-34-60.5c-0.9-1.5-1.3-3.2-1.3-5V279.1
	c0-5.6,4.5-10.1,10.1-10.1h73.7c5.6,0,10.2,4.6,10.1,10.2l-2.9,365C425,646,424.5,647.8,423.6,649.4z"/>
</svg>
