<?xml version="1.0" encoding="utf-8"?>
<!-- Generator: Adobe Illustrator 21.1.0, SVG Export Plug-In . SVG Version: 6.00 Build 0)  -->
<svg version="1.1" id="Layer_1" xmlns="http://www.w3.org/2000/svg" xmlns:xlink="http://www.w3.org/1999/xlink" x="0px" y="0px"
	 viewBox="0 0 786 964" style="enable-background:new 0 0 786 964;" xml:space="preserve">
<style type="text/css">
	.st0{opacity:0.39;}
</style>
<g>
	
		<ellipse transform="matrix(0.9313 -0.3643 0.3643 0.9313 -123.6025 83.1183)" class="st0" cx="158.5" cy="369.2" rx="61.3" ry="61.3"/>
	<path class="st0" d="M338.4,305.2l-4.7,0.4c-3,0.3-5.7-2-6-5l-6.6-74.3c-0.3-3,2-5.7,5-6l4.7-0.4c3-0.3,5.7,2,6,5l6.6,74.3
		C343.6,302.2,341.4,304.9,338.4,305.2z"/>
	<path class="st0" d="M600.8,628.2H414.6c-1-0.8-2.1-1.6-3.2-2.3L86.5,412.5c-22.1-14.5-52.1-8.3-66.6,13.8h0
		c-14.5,22.1-8.3,52.1,13.8,66.6l324.9,213.4c9.3,6.1,20.1,8.6,30.5,7.7v158.1c0,17.3,14.1,31.4,31.4,31.4h146.9
		c17.3,0,31.4-14.1,31.4-31.4V706.7h2.1c21.6,0,39.2-17.6,39.2-39.2l0,0C640,645.9,622.4,628.2,600.8,628.2z M570.1,872.1
		c0,1.5-1.3,2.9-2.9,2.9H420.4c-1.5,0-2.9-1.3-2.9-2.9V706.7h152.6V872.1z"/>
	<path class="st0" d="M766.8,676.7l-15.3-13.4L622.7,560.2c-1.6-0.3-3.2-0.4-4.8-0.4H605l24.9-13.6l1.5,2.7l121,96.8
		c0.3-5.7-1-11.6-4-16.9l-79.1-137.1c-3.7-6.4-9.5-11-16-13.4c-8.6-4.2-19-4.3-28,0.6l-139,75.7c-1,0.6-2,1.2-2.9,1.8
		c-3-4-6.7-7.4-11.2-10.2L294.7,438.5l93.1-32.9c8.1-2.8,13.3-9.4,14.4-16.7c0.8-2.2,1.2-4.6,1.1-7.1l-6.7-141
		c-0.5-11.4-11.3-20.3-23.9-19.8h0c-12.6,0.5-22.4,10.2-21.9,21.5l6.2,129.6l-131.5,46.4c-11.3,4-21.3,26.2-18,37.3
		c-0.5,14.2,6.4,28.4,19.4,36.3l203.1,123.5c8.3,5,17.6,6.7,26.6,5.5h154.1l115.7,101.7c12.7,11.1,32.1,9.9,43.3-2.8
		C780.7,707.3,779.4,687.8,766.8,676.7z"/>
</g>
</svg>
