<?xml version="1.0" encoding="utf-8"?>
<!-- Generator: Adobe Illustrator 21.1.0, SVG Export Plug-In . SVG Version: 6.00 Build 0)  -->
<svg version="1.1" id="Layer_1" xmlns="http://www.w3.org/2000/svg" xmlns:xlink="http://www.w3.org/1999/xlink" x="0px" y="0px"
	 viewBox="0 0 786 964" style="enable-background:new 0 0 786 964;" xml:space="preserve">
<style type="text/css">
	.st0{opacity:0.39;}
	.st1{stroke:#FFFFFF;stroke-miterlimit:10;}
	.st2{stroke:#FFFFFF;stroke-width:10;stroke-miterlimit:10;}
</style>
<g>
	
		<ellipse transform="matrix(0.9572 -0.2894 0.2894 0.9572 -35.1966 111.4491)" class="st0" cx="359.2" cy="174.7" rx="60.9" ry="60.9"/>
	<path class="st0" d="M500.7,250.5l-3.7-2.8c-2.4-1.8-2.9-5.3-1.1-7.7l44.7-59c1.8-2.4,5.3-2.9,7.7-1.1l3.7,2.8
		c2.4,1.8,2.9,5.3,1.1,7.7l-44.7,59C506.6,251.9,503.1,252.4,500.7,250.5z"/>
	<path class="st1" d="M571.8,725.1"/>
	<path class="st2" d="M332.4,839.6"/>
	<path class="st2" d="M511.2,674.3"/>
	<rect x="197.6" y="33" class="st0" width="55.3" height="870.2"/>
	<g>
		<path class="st0" d="M412,775.7L361.4,823l16.6,63.3c4.2,16.2,21,26,37.2,21.8h0c16.2-4.2,26-21,21.8-37.2L412,775.7z"/>
		<path class="st0" d="M375.8,333.2l89.9,38.4c7.2,3.1,15.1,1.2,20.7-4c2-1.3,3.9-3,5.5-5.1l89.8-120.8c7.2-9.7,6-24.3-2.6-32.4
			c-8.7-8.1-21.7-6.8-28.9,3l-82.5,110.9l-115.7-49.5c-8.5-5.7-18.8-9.1-29.8-9.1h0c-29.5,0-53.6,24.1-53.6,53.6v175.6
			c0,15.3,6.5,29.1,16.9,38.9L335.5,724l50.7-47l-22.7-86.5l54.7,61.3l7.5,7.5l-0.4,0.4l0,0l-35.1,32.9l0-0.1L339.7,740l0.1,0.3
			l-52.4,49.2c-12.2,11.5-12.8,30.8-1.4,43.1c11,11.7,29.2,12.7,41.5,2.7l-0.2-0.2l80.8-74.8l-0.1-0.4l79.1-74.3
			c5.4-5.1,8.5-11.7,9.4-18.5c2.1-9.3-0.2-19.4-6.9-27L373.2,510c1.6-5.1,2.5-10.5,2.5-16.1V333.2z"/>
	</g>
</g>
</svg>
